<svg id="svg" version="1.1" xmlns="http://www.w3.org/2000/svg" xmlns:xlink="http://www.w3.org/1999/xlink" width="400" height="400" viewBox="0, 0, 400,400"><g id="svgg"><path id="path0" d="M307.100 109.232 C 306.448 109.612,306.399 111.048,306.382 130.120 C 306.364 150.490,305.949 159.070,304.883 161.049 C 304.632 161.516,304.232 162.776,303.994 163.849 C 302.069 172.545,293.631 184.055,284.200 190.850 C 280.895 193.231,272.767 197.600,271.641 197.600 C 271.383 197.600,270.773 197.854,270.286 198.163 C 269.799 198.473,268.368 198.935,267.107 199.190 C 265.846 199.445,264.718 199.809,264.601 199.999 C 264.483 200.189,263.355 200.457,262.094 200.594 C 260.832 200.732,257.668 201.104,255.063 201.422 C 251.160 201.898,241.308 202.000,199.053 202.000 C 166.089 202.000,146.569 202.148,144.390 202.415 C 135.442 203.510,125.037 209.736,118.198 218.088 C 116.526 220.130,114.808 222.220,114.379 222.734 C 113.951 223.248,113.600 223.863,113.600 224.102 C 113.600 224.341,113.356 224.821,113.058 225.169 C 111.810 226.623,108.814 233.176,107.606 237.093 C 105.906 242.608,105.878 243.412,105.712 292.000 C 105.564 334.860,105.610 339.335,106.228 342.800 C 107.703 351.071,111.515 357.860,118.169 364.069 C 121.820 367.476,121.746 367.416,124.879 369.518 C 130.044 372.982,134.778 375.600,135.877 375.600 C 136.165 375.600,136.400 375.773,136.400 375.985 C 136.400 376.196,137.147 376.570,138.061 376.816 C 138.974 377.062,140.366 377.609,141.155 378.032 C 141.943 378.454,142.863 378.800,143.200 378.800 C 143.537 378.800,144.478 379.157,145.291 379.593 C 146.105 380.029,147.542 380.504,148.485 380.648 C 149.428 380.792,150.560 381.099,151.000 381.331 C 151.755 381.729,154.106 382.328,160.600 383.778 C 162.140 384.121,164.570 384.672,166.000 385.002 C 167.430 385.332,170.130 385.792,172.000 386.025 C 173.870 386.258,176.750 386.745,178.400 387.108 C 182.824 388.081,212.449 388.085,216.600 387.113 C 218.140 386.752,221.184 386.249,223.365 385.994 C 225.546 385.739,227.732 385.378,228.224 385.191 C 228.715 385.004,230.891 384.551,233.059 384.184 C 235.226 383.817,237.186 383.366,237.414 383.181 C 237.641 382.996,238.941 382.666,240.303 382.447 C 241.664 382.227,243.368 381.780,244.089 381.453 C 244.810 381.126,246.195 380.734,247.167 380.583 C 248.138 380.431,249.488 379.969,250.167 379.555 C 250.845 379.141,251.726 378.802,252.125 378.801 C 252.765 378.800,253.883 378.353,258.600 376.213 C 267.812 372.034,272.825 368.757,278.075 363.481 C 281.455 360.085,282.515 358.762,284.681 355.234 C 286.401 352.433,287.912 348.739,288.376 346.200 C 288.578 345.100,288.974 343.660,289.256 343.000 C 289.982 341.304,290.287 303.428,289.581 302.578 C 289.169 302.080,282.901 302.000,244.575 302.000 C 215.253 302.000,199.963 301.863,199.799 301.599 C 199.422 300.989,199.494 291.146,199.878 290.762 C 200.063 290.577,232.432 290.374,271.807 290.313 L 343.400 290.200 345.887 289.300 C 347.255 288.805,348.590 288.400,348.853 288.400 C 349.603 288.400,357.015 284.632,357.838 283.832 C 358.082 283.594,359.164 282.691,360.241 281.824 C 363.337 279.333,366.617 275.146,370.285 269.000 C 370.548 268.560,371.412 266.850,372.207 265.200 C 373.001 263.550,373.999 261.534,374.425 260.721 C 374.851 259.907,375.206 259.007,375.213 258.721 C 375.219 258.434,375.668 257.300,376.209 256.200 C 376.750 255.100,377.194 253.925,377.196 253.589 C 377.198 253.253,377.460 252.606,377.778 252.152 C 378.096 251.698,378.576 250.443,378.844 249.363 C 379.112 248.284,379.571 247.028,379.864 246.572 C 380.157 246.117,380.564 244.947,380.768 243.972 C 380.973 242.998,381.411 241.390,381.743 240.400 C 382.496 238.156,383.099 235.803,383.844 232.200 C 384.163 230.660,384.690 228.320,385.016 227.000 C 387.552 216.716,387.558 190.192,385.026 177.487 C 384.710 175.899,384.252 173.250,384.009 171.600 C 383.766 169.950,383.304 167.712,382.983 166.627 C 382.662 165.542,382.400 164.086,382.400 163.390 C 382.400 162.694,382.067 161.152,381.661 159.963 C 381.254 158.773,380.794 156.827,380.639 155.637 C 380.483 154.448,380.118 153.008,379.827 152.437 C 379.535 151.867,379.106 150.496,378.873 149.392 C 378.639 148.287,378.168 146.847,377.826 146.192 C 377.485 145.536,377.202 144.640,377.199 144.200 C 377.195 143.760,376.750 142.500,376.209 141.400 C 375.668 140.300,375.219 139.068,375.213 138.662 C 375.206 138.256,374.864 137.446,374.452 136.862 C 374.041 136.278,373.567 135.350,373.397 134.800 C 373.228 134.250,372.755 133.371,372.345 132.846 C 371.935 132.321,371.597 131.691,371.593 131.446 C 371.589 131.201,371.046 130.190,370.387 129.200 C 369.728 128.210,368.966 127.061,368.694 126.647 C 366.544 123.369,359.462 116.148,357.897 115.638 C 357.624 115.549,356.843 115.054,356.162 114.538 C 355.481 114.022,354.649 113.600,354.311 113.600 C 353.974 113.600,353.492 113.352,353.241 113.050 C 352.990 112.747,351.933 112.266,350.892 111.980 C 349.852 111.694,348.640 111.239,348.200 110.969 C 345.413 109.256,309.653 107.745,307.100 109.232 M254.869 325.287 C 257.802 325.957,261.875 328.610,263.511 330.916 C 266.136 334.616,266.455 335.345,266.898 338.651 C 267.442 342.718,266.846 347.506,265.599 349.092 C 265.160 349.651,264.800 350.278,264.800 350.487 C 264.800 352.246,259.346 356.592,255.414 357.966 C 247.515 360.726,237.283 355.876,234.811 348.200 C 234.528 347.320,234.106 346.362,233.875 346.071 C 233.016 344.991,233.036 339.117,233.906 337.179 C 234.345 336.201,234.838 334.950,235.001 334.400 C 236.922 327.917,246.717 323.424,254.869 325.287 " stroke="none" fill="#fce433" fill-rule="evenodd"></path><path id="path1" d="M179.600 14.213 C 174.430 14.490,169.300 14.907,168.200 15.139 C 167.100 15.371,164.220 15.761,161.800 16.007 C 159.380 16.252,156.500 16.693,155.400 16.987 C 154.300 17.281,152.320 17.640,151.000 17.784 C 149.680 17.929,147.564 18.396,146.298 18.823 C 145.033 19.250,143.408 19.600,142.687 19.600 C 141.967 19.600,140.995 19.868,140.527 20.196 C 140.059 20.524,138.716 20.998,137.542 21.250 C 136.368 21.502,135.046 21.925,134.604 22.191 C 134.162 22.456,133.035 22.911,132.100 23.201 C 131.165 23.491,130.400 23.872,130.400 24.049 C 130.400 24.225,129.688 24.561,128.818 24.795 C 127.948 25.029,126.971 25.486,126.648 25.809 C 126.325 26.132,125.642 26.582,125.130 26.809 C 123.675 27.453,121.590 29.068,119.299 31.327 C 116.183 34.398,115.997 34.613,115.203 36.065 C 109.755 46.029,109.098 50.787,109.281 79.000 L 109.400 97.400 153.761 97.502 C 186.290 97.576,198.269 97.725,198.673 98.060 C 199.098 98.413,199.198 99.661,199.112 103.559 L 199.000 108.600 134.600 108.810 C 99.180 108.926,69.840 109.156,69.400 109.322 C 68.960 109.488,66.710 109.872,64.400 110.175 C 60.314 110.712,58.552 111.169,54.000 112.876 C 51.807 113.699,46.920 115.985,45.400 116.899 C 37.397 121.713,31.208 127.816,26.505 135.532 C 25.032 137.948,21.679 144.912,21.367 146.200 C 21.208 146.860,20.745 148.027,20.339 148.794 C 19.932 149.561,19.600 150.685,19.600 151.292 C 19.600 151.900,19.247 153.433,18.815 154.698 C 18.383 155.964,17.854 158.115,17.640 159.478 C 17.426 160.841,17.081 162.281,16.872 162.678 C 16.663 163.075,16.367 164.390,16.214 165.600 C 16.061 166.810,15.605 169.330,15.199 171.200 C 14.793 173.070,14.155 177.030,13.781 180.000 C 13.406 182.970,12.958 186.390,12.784 187.600 C 12.099 192.364,12.353 208.973,13.199 214.748 C 13.638 217.747,14.163 221.550,14.365 223.200 C 14.822 226.931,16.572 236.188,17.125 237.800 C 17.351 238.460,17.650 239.973,17.790 241.163 C 17.930 242.352,18.314 243.847,18.643 244.484 C 18.973 245.121,19.346 246.578,19.473 247.722 C 19.599 248.865,20.018 250.340,20.403 251.000 C 20.788 251.660,21.216 252.840,21.355 253.622 C 21.494 254.405,21.966 255.748,22.404 256.607 C 22.842 257.466,23.200 258.384,23.200 258.648 C 23.200 259.086,24.789 262.574,25.638 264.000 C 25.835 264.330,26.361 265.320,26.807 266.200 C 27.254 267.080,28.335 268.790,29.210 270.000 C 30.085 271.210,31.234 272.830,31.764 273.600 C 33.670 276.370,37.301 279.757,42.288 283.415 C 45.373 285.678,52.124 288.431,57.600 289.659 C 61.382 290.507,91.716 290.576,92.475 289.739 C 93.083 289.067,93.160 286.696,93.310 264.199 C 93.471 239.942,93.658 236.144,94.865 232.600 C 95.090 231.940,95.571 230.320,95.935 229.000 C 96.298 227.680,96.821 226.362,97.098 226.071 C 97.374 225.781,97.600 225.346,97.600 225.106 C 97.600 224.212,100.923 217.942,102.986 214.943 C 106.885 209.274,114.874 201.539,119.400 199.050 C 120.662 198.356,121.544 197.822,123.198 196.752 C 123.749 196.396,125.550 195.532,127.200 194.832 C 128.850 194.132,130.650 193.355,131.200 193.105 C 131.750 192.855,133.460 192.317,135.000 191.910 C 136.540 191.503,138.430 190.964,139.200 190.712 C 140.207 190.383,155.908 190.188,195.200 190.016 C 233.472 189.849,250.169 189.646,251.034 189.336 C 251.712 189.093,253.422 188.762,254.834 188.600 C 256.245 188.438,258.068 187.967,258.884 187.553 C 259.700 187.139,260.702 186.800,261.110 186.800 C 265.474 186.800,280.653 175.525,285.019 169.040 C 285.449 168.403,286.116 167.413,286.503 166.840 C 286.889 166.268,287.570 165.080,288.015 164.200 C 288.460 163.320,288.983 162.330,289.178 162.000 C 290.060 160.502,291.534 156.888,291.707 155.800 C 291.812 155.140,292.235 153.430,292.649 152.000 C 293.364 149.525,293.400 147.235,293.400 104.200 L 293.400 59.000 292.500 56.138 C 292.005 54.564,291.600 53.011,291.600 52.686 C 291.600 52.102,289.894 47.953,289.180 46.800 C 288.976 46.470,288.445 45.570,288.000 44.800 C 286.559 42.304,286.229 41.835,284.204 39.400 C 279.850 34.166,274.588 29.601,269.680 26.800 C 269.102 26.470,268.399 25.990,268.118 25.732 C 267.837 25.475,266.976 25.056,266.204 24.801 C 265.432 24.546,264.800 24.186,264.800 24.001 C 264.800 23.816,263.902 23.366,262.805 23.002 C 261.707 22.637,260.707 22.173,260.581 21.969 C 260.456 21.766,260.048 21.596,259.676 21.591 C 259.304 21.586,258.190 21.195,257.200 20.721 C 256.210 20.248,254.500 19.636,253.400 19.361 C 252.300 19.086,250.416 18.578,249.213 18.231 C 248.010 17.884,246.406 17.600,245.648 17.600 C 244.890 17.600,243.354 17.330,242.235 17.001 C 241.116 16.671,237.410 16.125,234.000 15.787 C 230.590 15.449,226.703 15.005,225.362 14.800 C 223.112 14.457,195.559 13.541,191.000 13.658 C 189.900 13.686,184.770 13.936,179.600 14.213 M154.594 41.928 C 155.471 42.408,156.345 42.800,156.536 42.800 C 156.973 42.800,158.937 44.360,160.915 46.279 C 165.437 50.667,166.862 59.062,164.075 64.897 C 162.729 67.716,158.121 72.800,156.912 72.800 C 156.572 72.800,155.643 73.205,154.847 73.700 C 151.362 75.867,143.347 74.867,138.800 71.697 C 132.719 67.458,129.602 57.294,132.700 51.806 C 133.195 50.929,133.600 50.012,133.600 49.768 C 133.600 49.524,133.960 48.998,134.400 48.600 C 134.840 48.202,135.204 47.679,135.209 47.438 C 135.222 46.755,139.114 43.592,141.551 42.284 C 144.791 40.544,151.719 40.355,154.594 41.928 " stroke="none" fill="#4484bb" fill-rule="evenodd"></path><path id="path2" d="M0.000 200.000 L 0.000 400.000 200.000 400.000 L 400.000 400.000 400.000 200.000 L 400.000 0.000 200.000 0.000 L 0.000 0.000 0.000 200.000 M207.962 14.017 C 216.191 14.243,224.021 14.596,225.362 14.800 C 226.703 15.005,230.590 15.449,234.000 15.787 C 237.410 16.125,241.116 16.671,242.235 17.001 C 243.354 17.330,244.890 17.600,245.648 17.600 C 246.406 17.600,248.010 17.884,249.213 18.231 C 250.416 18.578,252.300 19.086,253.400 19.361 C 254.500 19.636,256.210 20.248,257.200 20.721 C 258.190 21.195,259.304 21.586,259.676 21.591 C 260.048 21.596,260.456 21.766,260.581 21.969 C 260.707 22.173,261.707 22.637,262.805 23.002 C 263.902 23.366,264.800 23.816,264.800 24.001 C 264.800 24.186,265.432 24.546,266.204 24.801 C 266.976 25.056,267.837 25.475,268.118 25.732 C 268.399 25.990,269.102 26.470,269.680 26.800 C 274.588 29.601,279.850 34.166,284.204 39.400 C 286.229 41.835,286.559 42.304,288.000 44.800 C 288.445 45.570,288.976 46.470,289.180 46.800 C 289.894 47.953,291.600 52.102,291.600 52.686 C 291.600 53.011,292.005 54.564,292.500 56.138 L 293.400 59.000 293.400 104.200 C 293.400 147.235,293.364 149.525,292.649 152.000 C 292.235 153.430,291.812 155.140,291.707 155.800 C 291.534 156.888,290.060 160.502,289.178 162.000 C 288.983 162.330,288.460 163.320,288.015 164.200 C 287.570 165.080,286.889 166.268,286.503 166.840 C 286.116 167.413,285.449 168.403,285.019 169.040 C 280.653 175.525,265.474 186.800,261.110 186.800 C 260.702 186.800,259.700 187.139,258.884 187.553 C 258.068 187.967,256.245 188.438,254.834 188.600 C 253.422 188.762,251.712 189.093,251.034 189.336 C 250.169 189.646,233.472 189.849,195.200 190.016 C 155.908 190.188,140.207 190.383,139.200 190.712 C 138.430 190.964,136.540 191.503,135.000 191.910 C 133.460 192.317,131.750 192.855,131.200 193.105 C 130.650 193.355,128.850 194.132,127.200 194.832 C 125.550 195.532,123.749 196.396,123.198 196.752 C 121.544 197.822,120.662 198.356,119.400 199.050 C 114.874 201.539,106.885 209.274,102.986 214.943 C 100.923 217.942,97.600 224.212,97.600 225.106 C 97.600 225.346,97.374 225.781,97.098 226.071 C 96.821 226.362,96.298 227.680,95.935 229.000 C 95.571 230.320,95.090 231.940,94.865 232.600 C 93.658 236.144,93.471 239.942,93.310 264.199 C 93.160 286.696,93.083 289.067,92.475 289.739 C 91.716 290.576,61.382 290.507,57.600 289.659 C 52.124 288.431,45.373 285.678,42.288 283.415 C 37.301 279.757,33.670 276.370,31.764 273.600 C 31.234 272.830,30.085 271.210,29.210 270.000 C 28.335 268.790,27.254 267.080,26.807 266.200 C 26.361 265.320,25.835 264.330,25.638 264.000 C 24.789 262.574,23.200 259.086,23.200 258.648 C 23.200 258.384,22.842 257.466,22.404 256.607 C 21.966 255.748,21.494 254.405,21.355 253.622 C 21.216 252.840,20.788 251.660,20.403 251.000 C 20.018 250.340,19.599 248.865,19.473 247.722 C 19.346 246.578,18.973 245.121,18.643 244.484 C 18.314 243.847,17.930 242.352,17.790 241.163 C 17.650 239.973,17.351 238.460,17.125 237.800 C 16.572 236.188,14.822 226.931,14.365 223.200 C 14.163 221.550,13.638 217.747,13.199 214.748 C 12.353 208.973,12.099 192.364,12.784 187.600 C 12.958 186.390,13.406 182.970,13.781 180.000 C 14.155 177.030,14.793 173.070,15.199 171.200 C 15.605 169.330,16.061 166.810,16.214 165.600 C 16.367 164.390,16.663 163.075,16.872 162.678 C 17.081 162.281,17.426 160.841,17.640 159.478 C 17.854 158.115,18.383 155.964,18.815 154.698 C 19.247 153.433,19.600 151.900,19.600 151.292 C 19.600 150.685,19.932 149.561,20.339 148.794 C 20.745 148.027,21.208 146.860,21.367 146.200 C 21.961 143.742,25.953 136.160,28.902 131.888 C 31.986 127.419,38.469 121.207,43.000 118.379 C 45.756 116.659,46.130 116.452,49.000 115.060 C 54.802 112.245,59.159 110.863,64.400 110.175 C 66.710 109.872,68.960 109.488,69.400 109.322 C 69.840 109.156,99.180 108.926,134.600 108.810 L 199.000 108.600 199.112 103.559 C 199.198 99.661,199.098 98.413,198.673 98.060 C 198.269 97.725,186.290 97.576,153.761 97.502 L 109.400 97.400 109.281 79.000 C 109.098 50.787,109.755 46.029,115.203 36.065 C 115.997 34.613,116.183 34.398,119.299 31.327 C 121.590 29.068,123.675 27.453,125.130 26.809 C 125.642 26.582,126.325 26.132,126.648 25.809 C 126.971 25.486,127.948 25.029,128.818 24.795 C 129.688 24.561,130.400 24.225,130.400 24.049 C 130.400 23.872,131.165 23.491,132.100 23.201 C 133.035 22.911,134.162 22.456,134.604 22.191 C 135.046 21.925,136.368 21.502,137.542 21.250 C 138.716 20.998,140.059 20.524,140.527 20.196 C 140.995 19.868,141.967 19.600,142.687 19.600 C 143.408 19.600,145.033 19.250,146.298 18.823 C 147.564 18.396,149.680 17.929,151.000 17.784 C 152.320 17.640,154.300 17.281,155.400 16.987 C 156.500 16.693,159.380 16.252,161.800 16.007 C 164.220 15.761,167.100 15.371,168.200 15.139 C 169.904 14.779,184.670 13.820,191.000 13.658 C 192.100 13.629,199.733 13.791,207.962 14.017 M144.400 41.177 C 142.803 41.552,140.632 42.655,138.951 43.946 C 136.466 45.854,135.217 47.019,135.209 47.438 C 135.204 47.679,134.840 48.202,134.400 48.600 C 133.960 48.998,133.600 49.524,133.600 49.768 C 133.600 50.012,133.195 50.929,132.700 51.806 C 129.602 57.294,132.719 67.458,138.800 71.697 C 143.347 74.867,151.362 75.867,154.847 73.700 C 155.643 73.205,156.572 72.800,156.912 72.800 C 158.121 72.800,162.729 67.716,164.075 64.897 C 166.862 59.062,165.437 50.667,160.915 46.279 C 158.937 44.360,156.973 42.800,156.536 42.800 C 156.345 42.800,155.471 42.408,154.594 41.928 C 152.841 40.969,147.090 40.545,144.400 41.177 M341.000 109.638 C 344.520 110.100,347.760 110.698,348.200 110.969 C 348.640 111.239,349.852 111.694,350.892 111.980 C 351.933 112.266,352.990 112.747,353.241 113.050 C 353.492 113.352,353.974 113.600,354.311 113.600 C 354.649 113.600,355.481 114.022,356.162 114.538 C 356.843 115.054,357.624 115.549,357.897 115.638 C 359.462 116.148,366.544 123.369,368.694 126.647 C 368.966 127.061,369.728 128.210,370.387 129.200 C 371.046 130.190,371.589 131.201,371.593 131.446 C 371.597 131.691,371.935 132.321,372.345 132.846 C 372.755 133.371,373.228 134.250,373.397 134.800 C 373.567 135.350,374.041 136.278,374.452 136.862 C 374.864 137.446,375.206 138.256,375.213 138.662 C 375.219 139.068,375.668 140.300,376.209 141.400 C 376.750 142.500,377.195 143.760,377.199 144.200 C 377.202 144.640,377.485 145.536,377.826 146.192 C 378.168 146.847,378.639 148.287,378.873 149.392 C 379.106 150.496,379.535 151.867,379.827 152.437 C 380.118 153.008,380.483 154.448,380.639 155.637 C 380.794 156.827,381.254 158.773,381.661 159.963 C 382.067 161.152,382.400 162.694,382.400 163.390 C 382.400 164.086,382.662 165.542,382.983 166.627 C 383.304 167.712,383.766 169.950,384.009 171.600 C 384.252 173.250,384.710 175.899,385.026 177.487 C 387.558 190.192,387.552 216.716,385.016 227.000 C 384.690 228.320,384.163 230.660,383.844 232.200 C 383.099 235.803,382.496 238.156,381.743 240.400 C 381.411 241.390,380.973 242.998,380.768 243.972 C 380.564 244.947,380.157 246.117,379.864 246.572 C 379.571 247.028,379.112 248.284,378.844 249.363 C 378.576 250.443,378.096 251.698,377.778 252.152 C 377.460 252.606,377.198 253.253,377.196 253.589 C 377.194 253.925,376.750 255.100,376.209 256.200 C 375.668 257.300,375.219 258.434,375.213 258.721 C 375.206 259.007,374.851 259.907,374.425 260.721 C 373.999 261.534,373.001 263.550,372.207 265.200 C 371.412 266.850,370.548 268.560,370.285 269.000 C 366.617 275.146,363.337 279.333,360.241 281.824 C 359.164 282.691,358.082 283.594,357.838 283.832 C 357.015 284.632,349.603 288.400,348.853 288.400 C 348.590 288.400,347.255 288.805,345.887 289.300 L 343.400 290.200 271.807 290.313 C 232.432 290.374,200.063 290.577,199.878 290.762 C 199.494 291.146,199.422 300.989,199.799 301.599 C 199.963 301.863,215.253 302.000,244.575 302.000 C 282.901 302.000,289.169 302.080,289.581 302.578 C 290.287 303.428,289.982 341.304,289.256 343.000 C 288.974 343.660,288.578 345.100,288.376 346.200 C 287.912 348.739,286.401 352.433,284.681 355.234 C 279.186 364.183,271.516 370.353,258.600 376.213 C 253.883 378.353,252.765 378.800,252.125 378.801 C 251.726 378.802,250.845 379.141,250.167 379.555 C 249.488 379.969,248.138 380.431,247.167 380.583 C 246.195 380.734,244.810 381.126,244.089 381.453 C 243.368 381.780,241.664 382.227,240.303 382.447 C 238.941 382.666,237.641 382.996,237.414 383.181 C 237.186 383.366,235.226 383.817,233.059 384.184 C 230.891 384.551,228.715 385.004,228.224 385.191 C 227.732 385.378,225.546 385.739,223.365 385.994 C 221.184 386.249,218.140 386.752,216.600 387.113 C 212.449 388.085,182.824 388.081,178.400 387.108 C 176.750 386.745,173.870 386.258,172.000 386.025 C 170.130 385.792,167.430 385.332,166.000 385.002 C 164.570 384.672,162.140 384.121,160.600 383.778 C 154.106 382.328,151.755 381.729,151.000 381.331 C 150.560 381.099,149.428 380.792,148.485 380.648 C 147.542 380.504,146.105 380.029,145.291 379.593 C 144.478 379.157,143.537 378.800,143.200 378.800 C 142.863 378.800,141.943 378.454,141.155 378.032 C 140.366 377.609,138.974 377.062,138.061 376.816 C 137.147 376.570,136.400 376.196,136.400 375.985 C 136.400 375.773,136.165 375.600,135.877 375.600 C 134.778 375.600,130.044 372.982,124.879 369.518 C 121.746 367.416,121.820 367.476,118.169 364.069 C 111.515 357.860,107.703 351.071,106.228 342.800 C 105.610 339.335,105.564 334.860,105.712 292.000 C 105.878 243.412,105.906 242.608,107.606 237.093 C 108.814 233.176,111.810 226.623,113.058 225.169 C 113.356 224.821,113.600 224.341,113.600 224.102 C 113.600 223.863,113.951 223.248,114.379 222.734 C 114.808 222.220,116.526 220.130,118.198 218.088 C 123.617 211.470,129.979 207.017,138.800 203.666 C 142.967 202.082,145.951 202.000,199.053 202.000 C 241.308 202.000,251.160 201.898,255.063 201.422 C 257.668 201.104,260.832 200.732,262.094 200.594 C 263.355 200.457,264.483 200.189,264.601 199.999 C 264.718 199.809,265.846 199.445,267.107 199.190 C 268.368 198.935,269.799 198.473,270.286 198.163 C 270.773 197.854,271.383 197.600,271.641 197.600 C 272.767 197.600,280.895 193.231,284.200 190.850 C 293.631 184.055,302.069 172.545,303.994 163.849 C 304.232 162.776,304.632 161.516,304.883 161.049 C 305.949 159.070,306.364 150.490,306.382 130.120 C 306.399 111.048,306.448 109.612,307.100 109.232 C 308.535 108.396,333.840 108.699,341.000 109.638 M245.800 325.346 C 241.544 326.316,236.025 330.943,235.001 334.400 C 234.838 334.950,234.345 336.201,233.906 337.179 C 233.036 339.117,233.016 344.991,233.875 346.071 C 234.106 346.362,234.528 347.320,234.811 348.200 C 237.283 355.876,247.515 360.726,255.414 357.966 C 259.346 356.592,264.800 352.246,264.800 350.487 C 264.800 350.278,265.160 349.651,265.599 349.092 C 267.667 346.463,267.566 337.021,265.436 333.755 C 262.807 329.724,262.248 329.162,258.400 326.677 C 255.668 324.914,250.220 324.338,245.800 325.346 " stroke="none" fill="#fbfbfb" fill-rule="evenodd"></path></g></svg>