<svg id="svg" version="1.1" xmlns="http://www.w3.org/2000/svg" xmlns:xlink="http://www.w3.org/1999/xlink" width="400" height="400" viewBox="0, 0, 400,400"><g id="svgg"><path id="path0" d="M166.480 75.680 C 165.740 76.420,165.815 145.123,166.557 146.100 C 167.355 147.151,235.979 147.189,236.851 146.139 C 237.802 144.993,237.921 77.018,236.974 75.971 C 236.109 75.016,167.428 74.732,166.480 75.680 M253.826 75.971 C 252.879 77.018,252.998 144.993,253.949 146.139 C 254.661 146.997,323.466 147.174,324.320 146.320 C 325.016 145.624,325.016 76.376,324.320 75.680 C 323.372 74.732,254.691 75.016,253.826 75.971 M75.900 166.557 C 74.788 167.401,74.819 235.531,75.931 236.538 C 77.122 237.615,145.161 237.548,146.138 236.469 C 147.188 235.308,147.151 167.355,146.100 166.557 C 145.064 165.771,76.936 165.771,75.900 166.557 M166.500 166.598 C 165.742 167.459,165.798 235.500,166.557 236.500 C 167.234 237.392,235.832 237.608,236.720 236.720 C 237.416 236.024,237.416 167.176,236.720 166.480 C 235.947 165.707,167.182 165.823,166.500 166.598 M254.080 166.480 C 253.384 167.176,253.384 236.024,254.080 236.720 C 254.776 237.416,323.624 237.416,324.320 236.720 C 325.016 236.024,325.016 167.176,324.320 166.480 C 323.624 165.784,254.776 165.784,254.080 166.480 M76.080 254.080 C 75.384 254.776,75.384 323.624,76.080 324.320 C 76.776 325.016,145.224 325.016,145.920 324.320 C 146.616 323.624,146.616 254.776,145.920 254.080 C 145.224 253.384,76.776 253.384,76.080 254.080 M166.643 254.233 C 166.140 255.543,166.371 323.811,166.880 324.320 C 167.794 325.234,235.705 324.989,236.538 324.069 C 237.396 323.120,237.574 254.934,236.720 254.080 C 235.889 253.249,166.962 253.400,166.643 254.233 " stroke="none" fill="#fcfcfc" fill-rule="evenodd"></path><path id="path1" d="M33.141 23.902 C 33.043 24.397,32.922 25.356,32.859 26.143 C 32.819 26.645,32.596 26.807,32.168 26.643 C 30.865 26.143,29.772 26.782,29.671 28.101 C 29.553 29.651,29.524 29.680,28.021 29.742 C 26.793 29.792,26.736 29.884,26.643 31.978 C 26.608 32.782,26.388 32.959,25.400 32.978 C 24.740 32.990,24.068 33.180,23.906 33.400 C 23.744 33.620,23.609 108.815,23.606 200.500 L 23.600 367.200 24.962 367.200 L 26.324 367.200 26.662 370.100 L 27.000 373.000 29.900 373.355 L 32.800 373.711 32.800 375.055 L 32.800 376.400 200.000 376.400 L 367.200 376.400 367.200 375.045 L 367.200 373.690 369.979 373.533 C 373.387 373.341,373.341 373.387,373.533 369.979 L 373.690 367.200 375.045 367.200 L 376.400 367.200 376.400 200.243 C 376.400 18.811,376.566 32.800,374.419 32.800 C 373.841 32.800,373.651 32.339,373.433 30.410 C 373.052 27.047,372.236 26.461,368.300 26.728 C 367.301 26.796,367.200 26.678,367.200 25.444 C 367.200 24.572,366.973 23.998,366.565 23.842 C 365.642 23.488,33.211 23.548,33.141 23.902 M236.974 75.971 C 237.921 77.018,237.802 144.993,236.851 146.139 C 235.979 147.189,167.355 147.151,166.557 146.100 C 165.815 145.123,165.740 76.420,166.480 75.680 C 167.428 74.732,236.109 75.016,236.974 75.971 M324.320 75.680 C 325.016 76.376,325.016 145.624,324.320 146.320 C 323.466 147.174,254.661 146.997,253.949 146.139 C 252.998 144.993,252.879 77.018,253.826 75.971 C 254.691 75.016,323.372 74.732,324.320 75.680 M146.100 166.557 C 147.151 167.355,147.188 235.308,146.138 236.469 C 145.161 237.548,77.122 237.615,75.931 236.538 C 74.819 235.531,74.788 167.401,75.900 166.557 C 76.936 165.771,145.064 165.771,146.100 166.557 M236.720 166.480 C 237.416 167.176,237.416 236.024,236.720 236.720 C 235.832 237.608,167.234 237.392,166.557 236.500 C 165.798 235.500,165.742 167.459,166.500 166.598 C 167.182 165.823,235.947 165.707,236.720 166.480 M324.320 166.480 C 325.016 167.176,325.016 236.024,324.320 236.720 C 323.624 237.416,254.776 237.416,254.080 236.720 C 253.384 236.024,253.384 167.176,254.080 166.480 C 254.776 165.784,323.624 165.784,324.320 166.480 M145.920 254.080 C 146.616 254.776,146.616 323.624,145.920 324.320 C 145.224 325.016,76.776 325.016,76.080 324.320 C 75.384 323.624,75.384 254.776,76.080 254.080 C 76.776 253.384,145.224 253.384,145.920 254.080 M236.720 254.080 C 237.574 254.934,237.396 323.120,236.538 324.069 C 235.705 324.989,167.794 325.234,166.880 324.320 C 166.371 323.811,166.140 255.543,166.643 254.233 C 166.962 253.400,235.889 253.249,236.720 254.080 " stroke="none" fill="#86a4bc" fill-rule="evenodd"></path></g></svg>